<?xml version="1.0" standalone="no"?>
<!DOCTYPE svg PUBLIC "-//W3C//DTD SVG 1.1//EN" "http://www.w3.org/Graphics/SVG/1.1/DTD/svg11.dtd" >
<!--
2013-9-30: Created.
-->
<svg>
<metadata>
Created by iconfont
</metadata>
<defs>

<font id="iconfont" horiz-adv-x="1024" >
  <font-face
    font-family="iconfont"
    font-weight="500"
    font-stretch="normal"
    units-per-em="1024"
    ascent="896"
    descent="-128"
  />
    <missing-glyph />
    
    <glyph glyph-name="heart" unicode="&#59295;" d="M514.031263-4.587226 135.016043 358.126726c-12.113899 12.916171-23.00904 27.228131-32.346709 42.551118-9.209756 15.098883-16.879436 31.207769-22.815635 47.894823-10.060123 28.318976-15.178701 70.808696-15.178701 100.106975 0 143.041834 116.358101 228.320079 259.399935 228.320079 72.010057 0 139.912563-54.723346 188.528817-106.179274C561.203632 722.275353 629.122511 776.998699 701.132568 776.998699c143.025461 0 259.383562-85.278245 259.383562-228.320079 0-28.800953-4.941546-70.840418-14.665001-98.726535-6.209422-17.746176-14.376429-34.881438-24.323988-50.895157-8.359388-13.477966-18.003026-26.249851-28.672016-37.978986l-2.037403-2.053776L514.031263-4.587226z"  horiz-adv-x="1024" />

    
    <glyph glyph-name="pen" unicode="&#58891;" d="M760.279005 785.937044c3.75737 0 5.676027-0.59958 8.973718-3.897272l0.039972-0.039972 0.039972-0.039972 138.24323-137.663635c3.397622-3.717398 4.017188-6.135705 4.017188-9.673229 0-4.336964-0.819426-5.915859-3.317678-8.394124l-53.362646-53.362646-156.270611 156.270611 53.082842 52.763066 0.679524 0.679524 0.659538 0.69951C754.762866 785.037674 755.602278 785.937044 760.279005 785.937044M570.931548 601.68602l156.410513-156.410513L298.522234 16.435695 142.091736 16.435695l0 156.410513L570.931548 601.68602M760.279005 849.372639c-21.305086 0-39.052663-7.494754-53.24273-22.484261l-98.211252-97.631658 246.147697-246.147697 98.211252 98.211252c14.589787 14.589787 21.884681 32.337364 21.884681 53.24273 0 20.505646-7.294894 38.453083-21.884681 53.84231l-139.04267 138.44309C799.131808 841.877885 781.184371 849.372639 760.279005 849.372639L760.279005 849.372639zM570.931548 691.403218 78.656141 199.127811l0-246.147697 246.147697 0L817.079245 445.255521 570.931548 691.403218 570.931548 691.403218zM223.024683 119.429999c-8.083941 0-16.065554 3.069851-22.307585 9.107225-12.484061 12.279404-12.58639 32.438093-0.306985 44.819826l353.032877 357.637654c12.279404 12.484061 32.438093 12.58639 44.819826 0.306985 12.484061-12.279404 12.58639-32.438093 0.306985-44.819826L245.639253 128.844209C239.397222 122.602178 231.210952 119.429999 223.024683 119.429999z"  horiz-adv-x="1024" />

    
    <glyph glyph-name="dot" unicode="&#58925;" d="M512 640 512 640c141.376 0 256-114.624 256-256l0 0c0-141.376-114.624-256-256-256l0 0c-141.376 0-256 114.624-256 256l0 0C256 525.376 370.624 640 512 640z"  horiz-adv-x="1024" />

    
    <glyph glyph-name="toggle" unicode="&#58908;" d="M0-128v148.041143h1170.285714V-128H0z m0 582.948571h1170.285714v-148.041142H0V454.948571zM0 896h1170.285714v-148.041143H0V896z"  horiz-adv-x="1170" />

    
    <glyph glyph-name="arrow-circle-o-right" unicode="&#58880;" d="M128 384c0 212.001 171.999 384 384 384s384-171.999 384-384-171.999-384-384-384-384 171.999-384 384M64 384c0-247.2 200.8-448 448-448s448 200.8 448 448-200.8 448-448 448-448-200.8-448-448zM386.399 610.4l227.2-226.4-227.2-226.4 45.6-45.6 272.001 272.001-272.001 272.001-45.6-45.6z"  horiz-adv-x="1024" />

    
    <glyph glyph-name="zhanghao" unicode="&#58936;" d="M681.984 809.642667c-234.837333 0-426.666667-191.829333-426.666667-426.666667s191.829333-426.666667 426.666667-426.666667 426.666667 191.829333 426.666667 426.666667-190.805333 426.666667-426.666667 426.666667z m0-41.984C894.805333 767.658667 1066.666667 594.773333 1066.666667 382.976c0-89.088-30.378667-169.813333-80.725334-235.861333-7.509333 6.485333-16.042667 11.776-25.258666 15.701333-58.709333 29.354667-35.669333 7.338667-108.032 36.693333-72.362667 30.378667-89.088 39.765333-89.088 39.765334l-1.024 68.096s27.306667 20.992 35.669333 84.821333c16.725333-5.290667 23.04 19.968 23.04 35.669333 1.024 15.701333 10.410667 62.976-10.410667 58.709334 4.266667 31.402667 7.338667 60.757333 6.314667 75.434666-5.290667 53.418667-41.984 109.056-135.168 113.152-78.677333-4.266667-130.048-59.733333-135.338667-113.152-1.024-14.677333 1.024-44.032 6.314667-75.434666-20.992 4.266667-11.605333-43.008-10.410667-58.709334 1.024-15.701333 6.314667-40.96 23.04-35.669333 8.362667-65.024 35.669333-86.016 35.669334-86.016l-1.024-69.12s-16.725333-10.410667-89.088-39.765333c-72.362667-30.378667-49.322667-6.314667-108.032-35.669334-9.386667-4.266667-17.749333-10.410667-25.088-15.701333-50.346667 66.048-80.725333 147.797333-80.725334 236.885333 0 211.968 172.885333 384.853333 384.682667 384.853334z m0 0"  horiz-adv-x="1365" />

    
    <glyph glyph-name="science" unicode="&#58892;" d="M900.042105 189.978947c-21.557895-37.726316-91.621053-48.505263-194.021052-21.557894 10.778947 37.726316 16.168421 80.842105 16.168421 123.957894 37.726316 26.947368 70.063158 48.505263 97.010526 75.452632 70.063158-70.063158 102.4-140.126316 80.842105-177.852632m-366.48421-210.189473c-43.115789 0-86.231579 59.284211-118.568421 156.294737 37.726316 10.778947 75.452632 26.947368 118.568421 48.505263 37.726316-16.168421 80.842105-32.336842 118.568421-48.505263-32.336842-97.010526-75.452632-156.294737-118.568421-156.294737m-366.484211 210.189473c-21.557895 37.726316 5.389474 102.4 80.842105 183.242106 32.336842-26.947368 64.673684-53.894737 97.010527-75.452632 5.389474-43.115789 10.778947-86.231579 16.168421-123.957895-97.010526-26.947368-172.463158-16.168421-194.021053 16.168421m0 425.768421c21.557895 37.726316 91.621053 48.505263 194.021053 21.557895-10.778947-37.726316-16.168421-80.842105-16.168421-123.957895-37.726316-26.947368-70.063158-48.505263-97.010527-75.452631-75.452632 70.063158-102.4 140.126316-80.842105 177.852631m366.484211 210.189474c43.115789 0 86.231579-59.284211 118.568421-156.294737-37.726316-10.778947-75.452632-26.947368-118.568421-48.505263-37.726316 16.168421-80.842105 32.336842-118.568421 48.505263 32.336842 97.010526 75.452632 156.294737 118.568421 156.294737m188.631579-366.48421c26.947368-16.168421 48.505263-37.726316 64.673684-53.894737-21.557895-16.168421-43.115789-37.726316-64.673684-53.894737v53.894737c0 16.168421 5.389474 32.336842 0 53.894737m-140.126316 134.736842c26.947368 10.778947 53.894737 21.557895 80.842105 26.947368 5.389474-26.947368 10.778947-53.894737 16.168421-86.231579-16.168421 10.778947-32.336842 21.557895-48.505263 26.947369-16.168421 16.168421-32.336842 26.947368-48.505263 32.336842m-194.021053-53.894737c5.389474 32.336842 10.778947 59.284211 16.168421 86.231579 26.947368-5.389474 53.894737-16.168421 80.842106-26.947369-16.168421-10.778947-32.336842-16.168421-48.505264-26.947368l-48.505263-32.336842m-43.115789-194.021053c-26.947368 16.168421-48.505263 37.726316-64.673684 53.894737 21.557895 16.168421 43.115789 37.726316 64.673684 53.894737v-53.894737c0-16.168421-5.389474-32.336842 0-53.894737m140.126316-134.736842c-26.947368-10.778947-53.894737-21.557895-80.842106-26.947368-5.389474 26.947368-10.778947 53.894737-16.168421 86.231579 16.168421-10.778947 32.336842-21.557895 48.505263-26.947369 16.168421-16.168421 32.336842-26.947368 48.505264-32.336842m194.021052 53.894737c-5.389474-32.336842-10.778947-59.284211-16.168421-86.231579-26.947368 5.389474-53.894737 16.168421-80.842105 26.947368 16.168421 10.778947 32.336842 16.168421 48.505263 26.947369l48.505263 32.336842m-70.063158 5.389474c-26.947368-16.168421-53.894737-26.947368-75.452631-37.726316-26.947368 10.778947-48.505263 26.947368-75.452632 37.726316-26.947368 16.168421-48.505263 32.336842-75.452631 48.505263 0 26.947368-5.389474 53.894737-5.389474 86.231579s0 59.284211 5.389474 86.231579c21.557895 16.168421 48.505263 32.336842 75.452631 48.505263 26.947368 16.168421 53.894737 26.947368 75.452632 37.726316 26.947368-10.778947 48.505263-26.947368 75.452631-37.726316 26.947368-16.168421 48.505263-32.336842 75.452632-48.505263 0-26.947368 5.389474-53.894737 5.389474-86.231579s0-59.284211-5.389474-86.231579c-21.557895-16.168421-48.505263-32.336842-75.452632-48.505263m291.031579 344.926315c21.557895-37.726316-5.389474-102.4-80.842105-183.242105-32.336842 26.947368-64.673684 53.894737-97.010526 75.452632-5.389474 43.115789-10.778947 86.231579-16.168421 123.957894 97.010526 26.947368 172.463158 16.168421 194.021052-16.168421m-48.505263-215.578947c86.231579 86.231579 134.736842 177.852632 97.010526 242.526316-37.726316 64.673684-140.126316 70.063158-258.694736 37.726316-32.336842 118.568421-86.231579 204.8-161.684211 204.8s-129.347368-86.231579-161.68421-204.8c-118.568421 32.336842-220.968421 32.336842-258.694737-37.726316-37.726316-64.673684 10.778947-156.294737 97.010526-242.526316-86.231579-86.231579-134.736842-177.852632-97.010526-242.526316 37.726316-64.673684 140.126316-70.063158 258.694737-37.726316 32.336842-118.568421 86.231579-204.8 161.68421-204.8s129.347368 86.231579 161.684211 204.8c118.568421-32.336842 220.968421-32.336842 258.694736 37.726316 43.115789 70.063158-5.389474 156.294737-97.010526 242.526316"  horiz-adv-x="1024" />

    
    <glyph glyph-name="location" unicode="&#58884;" d="M512.09668625 563.88658219a99.58288406 99.58288406 0 1 0-70.78783313-29.39494782A99.58288406 99.58288406 0 0 0 512.09668625 563.88658219m0 59.98968937a160.17247031 160.17247031 0 1 1 113.38051313-46.79195812A158.97267656 158.97267656 0 0 1 512.09668625 623.8762715600001zM786.84946344 747.45503156a382.13432062 382.13432062 0 0 1-549.50555344 0 404.33050594 404.33050594 0 0 1 0-562.10338875L512.09668625-96l274.75277719 281.35164281a404.33050594 404.33050594 0 0 1 0 562.10338875z m-41.39288532-522.51019406l-233.35989187-239.95875656-233.35989094 239.95875656a342.54112594 342.54112594 0 0 0 0 476.91802969 325.14411562 325.14411562 0 0 0 466.71978282 0 342.54112594 342.54112594 0 0 0 0-476.91802969z"  horiz-adv-x="1024" />

    
    <glyph glyph-name="academic-hat" unicode="&#58881;" d="M535.16 223.048c-143.44 0-295.152 69.904-295.152 136v168a24 24 0 1 0 48 0v-168c3.512-22.384 105.416-88 247.152-88 131.44 0 223.056 59.848 241 85.24a24.128 24.128 0 0 0-0.16 2.76v168a24 24 0 1 0 48 0v-156.344a23.872 23.872 0 0 0 2.472-16.744c-10.96-59.352-146.104-130.912-291.312-130.912zM96.336 215.048a24 24 0 0 0-24 24v96a24 24 0 0 0 24 24c13.256 0 23.664-10.744 23.664-24v-96c0-13.256-10.408-24-23.664-24zM96.336 423.048a24 24 0 0 0-24 24v128a24 24 0 0 0 24 24c13.256 0 23.664-10.744 23.664-24v-128c0-13.256-10.408-24-23.664-24zM100 327.048c-37.496 0-68 30.504-68 68s30.504 68 68 68c37.488 0 68-30.504 68-68s-30.504-68-68-68z m0 88c-11.032 0-20-8.976-20-20s8.968-20 20-20 20 8.976 20 20-8.968 20-20 20zM535.16 419.24c-1.848 0-3.696 0.32-5.464 0.96L83.584 582.104a16 16 0 0 0 0 30.08l446.112 161.904c3.52 1.28 7.384 1.288 10.92 0l446.128-161.904a16 16 0 0 0 0-30.08L540.616 420.208a15.856 15.856 0 0 0-5.456-0.968zM135.944 597.144l399.208-144.88 399.224 144.88-399.224 144.88-399.208-144.88zM272.016 503.04c-2.856 0-5.752 0.512-8.576 1.6l-182.976 70.096a24 24 0 0 0 0.4 44.968l446.112 161.904a24 24 0 0 0 16.376 0l446.128-161.904a24 24 0 0 0 0.472-44.952l-181.28-70.096a24 24 0 1 0-17.312 44.768l121.544 47L535.16 733.52l-377.44-136.984 122.888-47.08a24.008 24.008 0 0 0-8.592-46.416zM498 611.048a42 18 0 1 1 84 0 42 18 0 1 1-84 0Z"  horiz-adv-x="1024" />

    
    <glyph glyph-name="wenhao" unicode="&#58889;" d="M512.403296 895.998497a511.097312 511.097312 0 1 1 360.774573-150.322739 508.992794 508.992794 0 0 1-360.774573 150.322739z m0-51.109731a464.797908 464.797908 0 0 0 172.87115-33.672294 468.105009 468.105009 0 0 0 253.143492-253.143492 462.392745 462.392745 0 0 0 0-346.042945 468.105009 468.105009 0 0 0-253.143492-253.143492 462.392745 462.392745 0 0 0-346.042945 0 468.105009 468.105009 0 0 0-253.143492 253.143492 462.392745 462.392745 0 0 0 0 346.042945 468.105009 468.105009 0 0 0 253.143492 253.143492A464.797908 464.797908 0 0 0 512.403296 844.58812z m0 0M512.403296 199.402925a39.083912 39.083912 0 1 1 0-78.167824 39.083912 39.083912 0 1 1 0 78.167824z m0 448.863698a166.557595 166.557595 0 0 1-116.049154-38.783266 168.962758 168.962758 0 0 1-53.21425-111.539473l66.442651-8.117427a131.081428 131.081428 0 0 0 35.776812 80.272342A93.801389 93.801389 0 0 0 512.403296 595.353019a100.41559 100.41559 0 0 0 72.154915-28.56132 87.788479 87.788479 0 0 0 28.56132-65.540714 76.965242 76.965242 0 0 0-9.620655-37.881331 223.37959 223.37959 0 0 0-42.992304-46.600049 495.764393 495.764393 0 0 1-46.600049-44.49553 156.636294 156.636294 0 0 1-24.953574-41.489076 175.276313 175.276313 0 0 1-9.620655-66.142005v-19.842602h60.129095a283.20804 283.20804 0 0 0 5.110973 55.619414 99.513653 99.513653 0 0 0 14.731629 30.064547A294.331923 294.331923 0 0 0 602.596939 373.176011a327.402925 327.402925 0 0 1 62.834905 70.050396 132.28401 132.28401 0 0 1-30.064548 163.55114A172.570504 172.570504 0 0 1 512.403296 648.266623z m0 0"  horiz-adv-x="1025" />

    
    <glyph glyph-name="cha" unicode="&#59113;" d="M512 896C229.376 896 0 666.624 0 384s229.376-512 512-512 512 229.376 512 512-229.376 512-512 512z m245.845333-694.442667a38.741333 38.741333 0 0 0-51.029333 0L514.133333 374.101333 318.549333 202.24a39.765333 39.765333 0 0 0-51.797333 0c-14.336 12.8-14.336 33.28 0 45.397333l196.266667 172.544-185.429334 164.864c-14.421333 12.8-14.421333 33.28 0 45.397334a38.741333 38.741333 0 0 0 51.029334 0l185.514666-165.546667 188.330667 165.546667a39.765333 39.765333 0 0 0 51.797333 0c14.336-12.8 14.336-33.28 0-45.397334L565.162667 418.901333l192-171.946666a29.696 29.696 0 0 0 0.682666-45.397334z"  horiz-adv-x="1024" />

    
    <glyph glyph-name="arrow-right" unicode="&#59014;" d="M128 384c0 212.001 171.999 384 384 384s384-171.999 384-384-171.999-384-384-384-384 171.999-384 384M64 384c0-247.2 200.8-448 448-448s448 200.8 448 448-200.8 448-448 448-448-200.8-448-448zM386.399 610.4l227.2-226.4-227.2-226.4 45.6-45.6 272.001 272.001-272.001 272.001-45.6-45.6z"  horiz-adv-x="1024" />

    
    <glyph glyph-name="sousuoyuan" unicode="&#59108;" d="M829.49 701.49C744.69 786.3 631.93 833 512 833s-232.69-46.7-317.49-131.51S63 503.93 63 384s46.7-232.69 131.51-317.49S392.07-65 512-65s232.69 46.7 317.49 131.51S961 264.07 961 384s-46.7 232.69-131.51 317.49z m-30.24-604.74c-76.72-76.73-178.74-119-287.25-119s-210.53 42.25-287.25 119-119 178.74-119 287.25 42.26 210.53 119 287.25 178.74 119 287.25 119 210.53-42.26 287.25-119 119-178.74 119-287.25-42.25-210.53-119-287.25zM660 406.41a171.66 171.66 0 0 1-50.62 122.21C542 596 432.36 596 365 528.62A172.85 172.85 0 0 1 593.36 270l142.12-142.12 30.24 30.24-142.13 142.12A171.51 171.51 0 0 1 660 406.41z m-80.85-92a130.08 130.08 0 1 0 38.09 92 129.22 129.22 0 0 0-38.08-91.97z"  horiz-adv-x="1024" />

    
    <glyph glyph-name="eye" unicode="&#58947;" d="M512 686.592c-201.728 0-374.016-125.44-443.8016-302.592C137.984 206.848 310.272 81.408 512 81.408c201.9328 0 374.016 125.44 443.8016 302.592C886.016 561.152 713.9328 686.592 512 686.592z m0-504.32A201.8304 201.8304 0 0 0 310.272 384 201.7792 201.7792 0 0 0 512 585.728 201.7792 201.7792 0 0 0 713.728 384 201.8304 201.8304 0 0 0 512 182.272z m0 322.7648A121.1392 121.1392 0 0 1 390.9632 384 121.1392 121.1392 0 0 1 512 262.9632 121.1392 121.1392 0 0 1 633.0368 384 121.1392 121.1392 0 0 1 512 505.0368z"  horiz-adv-x="1024" />

    
    <glyph glyph-name="icon-arrow-right-cir" unicode="&#59317;" d="M512 896C228.352 896 0 666.624 0 384s229.376-512 512-512 512 229.376 512 512S795.648 896 512 896z m180.224-539.648l-253.952-256c-8.192-8.192-17.408-11.264-27.648-11.264-10.24 0-20.48 3.072-27.648 11.264-15.36 15.36-15.36 39.936 0 55.296L610.304 384 384 608.256c-15.36 15.36-15.36 39.936 0 54.272 15.36 15.36 39.936 15.36 54.272 0l253.952-251.904c8.192-8.192 11.264-16.384 11.264-27.648 0-9.216-3.072-19.456-11.264-26.624z m0 0"  horiz-adv-x="1024" />

    
    <glyph glyph-name="qipao-" unicode="&#58961;" d="M871.7 543.6H152.3c-30.6 0-55.3-24.8-55.3-55.3v-159.1c0-30.6 24.8-55.3 55.3-55.3h307.4l50-49.5 50.1 49.5h311.9c30.6 0 55.3 24.8 55.3 55.3V488.3c0 30.5-24.8 55.3-55.3 55.3z"  horiz-adv-x="1024" />

    
    <glyph glyph-name="shijian" unicode="&#58895;" d="M512-64A448 448 0 1 0 512 832a448 448 0 0 0 0-896M512 896a512 512 0 1 1 0-1024A512 512 0 0 1 512 896M512 320h224a32 32 0 1 0 0-64H448V608a32 32 0 0 0 64 0V320z"  horiz-adv-x="1024" />

    
    <glyph glyph-name="liaotian" unicode="&#59124;" d="M864.5 870.7h-705C72.4 870.7 1.8 800.1 1.8 712.9v-413.7c0-87.1 70.6-157.7 157.7-157.7h6.7c15.2 0 27.6-12.3 27.6-27.6v-199.7c0-14.9 17.9-22.4 28.6-12.1l268.5 211.7c12.5 17.4 32.7 27.7 54.1 27.7h319.5c87.1 0 157.7 70.6 157.7 157.7V712.9c0 87.2-70.6 157.8-157.7 157.8zM285.8 506.7m-63 0a63 63 0 1 1 126 0 63 63 0 1 1-126 0ZM512 506.7m-63 0a63 63 0 1 1 126 0 63 63 0 1 1-126 0ZM738.3 506.7m-63 0a63 63 0 1 1 126 0 63 63 0 1 1-126 0Z"  horiz-adv-x="1024" />

    
    <glyph glyph-name="G" unicode="&#58903;" d="M556.4399616-116.33677652999995c-67.50426453 0-133.0774016 13.2513792-194.78828373 39.34344533-59.63994453 25.23572907-113.05833813 61.29363627-159.03184214 107.26495573-45.96913493 45.96913493-82.00301227 99.53389227-107.2627712 159.0296576-26.08769707 61.69340587-39.33907627 127.28183467-39.33907626 194.7860992s13.2513792 133.0774016 39.33907626 194.78828374c25.25975893 59.63994453 61.29363627 113.05833813 107.2627712 159.03184213 45.973504 45.96913493 99.3984512 82.13408427 159.03184214 107.2627712 61.70432853 26.08769707 127.2840192 39.33907627 194.78828373 39.33907627 57.42701227 0 113.6132096-9.6600064 167.313408-28.57588054 51.90669653-18.36100267 100.08439467-45.1411968 143.294464-79.37283413 4.4171264-3.58918827 5.24506453-10.07725227 1.65587627-14.49437867-3.61540267-4.4171264-10.10346667-5.24506453-14.52059307-1.65369173-85.2885504 67.63752107-188.31332693 103.52940373-297.62955947 103.52940373C292.061184 863.94197333 76.84532907 648.7261184 76.84532907 384.22719147c0-264.503296 215.21585493-479.71915093 479.7169664-479.71915094 5.6492032 0 10.3415808-4.6923776 10.3415808-10.35250346 0.0131072-5.66667947-4.8037888-10.4923136-10.46391467-10.4923136zM560.234496 754.8813312c-204.12279467 0-369.59464107-165.4718464-369.59464107-369.59464107S356.11170133 15.689864530000023 560.234496 15.689864530000023c204.1249792 0 369.5968256 165.4718464 369.5968256 369.5968256S764.3529216 754.8813312 560.234496 754.8813312z m159.36170667-511.17643093c-23.70218667-18.8874752-48.12090027-33.0891264-73.302016-42.61587627-25.18111573-9.52456533-51.02851413-14.28247893-77.52690347-14.28247893-35.78702507 0-68.29943467 7.66334293-97.5306752 22.98565973-29.2421632 15.3223168-51.314688 37.486592-66.21975893 66.46879573-14.90725547 28.98438827-22.36306773 61.37664853-22.36306774 97.15930454 0 35.45060693 7.4121216 68.5375488 22.2363648 99.26956373 14.82205867 30.7298304 36.15184213 53.54509653 63.98498134 68.45672107 27.8331392 14.91817813 59.8867968 22.36525227 96.16315733 22.36525226 26.34110293 0 50.15251627-4.26857813 71.4407936-12.79699626 21.2795392-8.53060267 37.97592747-20.4210176 50.069504-35.66032214 12.0848384-15.23712 21.2795392-35.1207424 27.58191787-59.63994453l-43.48532054-11.92973653c-5.4657024 18.5532416-12.26397013 33.1350016-20.3751424 43.73654186-8.11772587 10.6037248-19.726336 19.09282133-34.78869333 25.4738432-15.07328 6.3766528-31.80680533 9.57044053-50.19839147 9.57044054-22.03757227 0-41.08888747-3.3554432-57.15176106-10.06414507-16.06505813-6.70870187-29.03681707-15.52984747-38.8890624-26.4634368-9.86098347-10.93358933-17.52214187-22.94196907-22.9834752-36.02950827-9.28208213-22.53564587-13.9198464-46.9696512-13.9198464-73.30420053 0-32.47527253 5.5902208-59.6443136 16.77284693-81.50493867s27.46176853-38.10699947 48.82868907-48.71072426c21.36692053-10.60154027 44.0598528-15.90121813 68.08316586-15.90121814 20.873216 0 41.2483584 4.0173568 61.1254272 12.0520704 19.88143787 8.0412672 34.94816427 16.613376 45.22420907 25.72506454v67.8428672h-107.09674667v42.73821013l154.3110656 0.2490368v-135.18984533h0.00873814z"  horiz-adv-x="1024" />

    
    <glyph glyph-name="arrow-right1" unicode="&#58882;" d="M512 768.00000001c212.001 0 384-171.999 384.00000001-384.00000001s-171.999-384-384.00000001-384.00000001-384 171.999-384.00000001 384.00000001 171.999 384 384.00000001 384.00000001M512 832c-247.2 0-448-200.8-448-448s200.8-448 448-448 448 200.8 448 448-200.8 448-448 448zM738.4 509.60099999l-226.4-227.19999999-226.4 227.19999999-45.6-45.59999999 272.001-272.001 272.001 272.001-45.6 45.6z"  horiz-adv-x="1024" />

    
    <glyph glyph-name="star" unicode="&#60122;" d="M512 896L384 512H0l320-256-128-384L512 128l320-256-128 384L1024 512H640L512 896z"  horiz-adv-x="1024" />

    
    <glyph glyph-name="plus-circle" unicode="&#58921;" d="M696 416H544V568c0 4.4-3.6 8-8 8h-48c-4.4 0-8-3.6-8-8v-152H328c-4.4 0-8-3.6-8-8v-48c0-4.4 3.6-8 8-8h152v-152c0-4.4 3.6-8 8-8h48c4.4 0 8 3.6 8 8V352h152c4.4 0 8 3.6 8 8v48c0 4.4-3.6 8-8 8zM512 832C264.6 832 64 631.4 64 384s200.6-448 448-448 448 200.6 448 448S759.4 832 512 832z m0-820c-205.4 0-372 166.6-372 372s166.6 372 372 372 372-166.6 372-372-166.6-372-372-372z"  horiz-adv-x="1024" />

    
    <glyph glyph-name="home" unicode="&#58883;" d="M513.3 703.2l320.1-292.6c-16.3-2-31.6-8.7-43.8-19.4l-0.2-0.2-0.2-0.2c-11.8-10.5-25.8-29-25.8-58.1v-272.5H646.2V176c0 43.5-36 78.8-80.3 78.8H460.3c-44.3 0-80.3-35.4-80.3-78.8v-115.7H264.2v273c0 40-30.5 73.2-69.9 78.2l319 291.7m0 64.8c-11.2 0-22.4-3.8-30.4-11.3L114.6 420c-13.2-11.3-17-28.3-9.9-43.8 7.1-15.1 22.2-24 39.6-24h39.6c11.3 0 20.3-8.5 20.3-18.8V40c0-21.7 19.3-39.6 42.9-39.6h150c23.6 0 42.9 17.9 42.9 39.6V176c0 10.4 9 18.8 20.3 18.8h105.6c11.3 0 20.3-8.5 20.3-18.8v-136.1c0-21.7 19.3-39.6 43.4-39.6h150c24.1 0 43.9 17.9 43.9 39.6v293c0 5.6 1.4 9.4 5.7 13.2 3.8 3.3 9 5.2 14.6 5.2H881c17.5 0 32.5 9.4 39.6 24 8 15.5 4.2 33-8 44.3L543.8 756.7c-8 7.5-19.3 11.3-30.5 11.3z"  horiz-adv-x="1024" />

    
    <glyph glyph-name="chaxun" unicode="&#58974;" d="M950.6-9.4L798.9 142.3c56.9 70.6 91 160.5 91 258.3C890 628 705.6 812.4 478.2 812.4S66.4 628 66.4 400.6s184.4-411.8 411.8-411.8c106.6 0 203.7 40.5 276.9 107l150.4-150.4c6.2-6.2 14.4-9.4 22.6-9.4s16.4 3.1 22.6 9.4c12.4 12.5 12.4 32.7-0.1 45.2z m-337.1 89.5c-42.8-18.1-88.4-27.3-135.4-27.3s-92.5 9.2-135.4 27.3c-41.4 17.5-78.6 42.6-110.6 74.6-32 32-57 69.2-74.6 110.6-18.1 42.8-27.3 88.4-27.3 135.4s9.2 92.5 27.3 135.4c17.5 41.4 42.6 78.6 74.6 110.6 32 32 69.2 57 110.6 74.6 42.8 18.1 88.4 27.3 135.4 27.3s92.5-9.2 135.4-27.3c41.4-17.5 78.6-42.6 110.6-74.6 32-32 57-69.2 74.6-110.6 18.1-42.8 27.3-88.4 27.3-135.4s-9.2-92.5-27.3-135.4c-17.5-41.4-42.6-78.6-74.6-110.6-32-32-69.2-57.1-110.6-74.6z"  horiz-adv-x="1024" />

    
    <glyph glyph-name="rili" unicode="&#58904;" d="M505.6-32h-400c-35.2 0-64 9.6-86.4 32-9.6 9.6-12.8 22.4-12.8 35.2v608c0 35.2 38.4 64 83.2 67.2h83.2c12.8 0 19.2 3.2 19.2 12.8v25.6c6.4 25.6 25.6 38.4 57.6 38.4 25.6 0 44.8-16 48-41.6v-3.2c3.2-35.2 3.2-35.2 44.8-35.2h348.8c16 0 22.4 3.2 22.4 16v22.4c3.2 25.6 25.6 38.4 54.4 38.4 28.8 0 48-16 51.2-38.4 0-12.8-6.4-28.8 3.2-35.2 12.8-6.4 32-3.2 48-3.2h48c48-3.2 86.4-32 86.4-70.4v-601.6c0-41.6-41.6-70.4-99.2-73.6-128 6.4-265.6 6.4-400 6.4z m3.2 547.2h-400c-16 0-22.4-3.2-22.4-16v-441.6c0-19.2 9.6-22.4 28.8-22.4h787.2c28.8 0 28.8 0 28.8 22.4V496c0 16-3.2 19.2-22.4 19.2h-400zM259.2 131.2H208c-22.4 0-32 9.6-35.2 25.6v54.4c0 16 12.8 25.6 32 25.6h108.8c22.4 0 32-9.6 32-28.8v-51.2c0-16-9.6-25.6-32-25.6h-54.4z m249.6 0h-51.2c-22.4 0-35.2 9.6-35.2 25.6V208c0 19.2 9.6 25.6 32 28.8H560c19.2 0 32-9.6 32-25.6v-54.4c0-16-12.8-25.6-32-25.6h-51.2z m249.6 105.6h54.4c19.2 0 32-9.6 28.8-25.6v-57.6c0-16-12.8-25.6-32-25.6H700.8c-19.2 0-32 9.6-32 25.6V208c0 16 12.8 25.6 32 25.6 19.2 6.4 38.4 3.2 57.6 3.2z m-249.6 76.8h-54.4c-22.4 0-32 6.4-32 25.6v57.6c0 16 9.6 22.4 28.8 22.4h112c19.2 0 28.8-9.6 32-25.6v-54.4c0-16-9.6-25.6-32-25.6h-54.4zM259.2 419.2h54.4c19.2 0 32-9.6 32-22.4v-57.6c0-16-9.6-22.4-28.8-22.4h-112c-19.2 0-28.8 6.4-28.8 22.4V400c0 16 12.8 22.4 32 22.4 16-3.2 32-3.2 51.2-3.2z m496-105.6h-54.4c-19.2 0-32 9.6-32 25.6v57.6c0 16 9.6 22.4 28.8 22.4h112c19.2 0 28.8-9.6 28.8-22.4v-57.6c0-12.8-9.6-22.4-28.8-22.4-16-3.2-35.2-3.2-54.4-3.2z"  horiz-adv-x="1024" />

    


  </font>
</defs>
</svg>
